<svg xmlns="http://www.w3.org/2000/svg" enable-background="new 0 0 100 100" viewBox="0 0 100 100" id="linkedin">
  <g>
    <path fill="#0077b5" d="M90.473,2.525c-14.609-0.041-68.493,0.028-80.946,0c-3.876,0-7.02,3.048-7.02,6.803v81.37
			c0,3.756,3.145,6.801,7.02,6.801h80.946c3.878,0,7.02-3.046,7.02-6.802V9.329C97.493,5.574,94.351,2.525,90.473,2.525z"></path>
    <path fill="#f1f1f1" d="M53.453 82.007c0 0 0-23.875 0-23.875-.139-4.388 2.483-8.482 7.761-8.666 5.142 0 7.2 3.921 7.2 9.669v22.872h14.212V57.49c0-13.133-7.011-19.244-16.362-19.244-7.667 0-11.034 4.285-12.905 7.203l.095-6.199H39.241c.185 4.011-.001 42.758-.001 42.758L53.453 82.007zM31.372 63.466V39.249H17.159v42.758h14.215C31.37 77.517 31.379 67.891 31.372 63.466zM24.268 33.412c4.956 0 8.041-3.283 8.041-7.386-.041-9.896-16.002-9.786-15.989-.001C16.31 30.16 19.48 33.463 24.268 33.412z"></path>
    <g>
      <path fill="none" stroke="#000" stroke-linecap="round" stroke-linejoin="round" stroke-miterlimit="10" stroke-width="3" d="M9.521,2.512C5.645,2.512,2.5,5.561,2.5,9.316V9.315v81.383c0,3.756,3.145,6.802,7.021,6.802h80.958
				c3.878,0,7.021-3.046,7.021-6.803V9.316c0-3.756-3.143-6.804-7.021-6.804c-7.937-0.038-65.164,0.027-71.501,0"></path>
      <path fill="none" stroke="#000" stroke-linecap="round" stroke-linejoin="round" stroke-miterlimit="10" stroke-width="3" d="M31.37,63.461v-24.22H17.154v42.764h14.217V71.143 M24.265,33.403c4.956,0,8.042-3.284,8.042-7.388
				c-0.042-9.897-16.005-9.787-15.991,0C16.305,30.15,19.476,33.454,24.265,33.403z M53.454,39.242H39.239
				c0.186,4.012-0.001,42.764-0.001,42.764l14.215-0.001V58.126c-0.14-4.389,2.485-8.482,7.762-8.667
				c5.143,0,7.201,3.921,7.201,9.671v22.875h14.214V57.485c0-13.135-7.012-19.247-16.365-19.247c-7.668,0-11.036,4.285-12.907,7.204
				L53.454,39.242z"></path>
    </g>
  </g>
</svg>
