<svg xmlns="http://www.w3.org/2000/svg" enable-background="new 0 0 3139.7 1134.6" viewBox="0 0 3139.7 1134.6" id="medium">
  <path fill="#000002" stroke="#000" stroke-miterlimit="10" d="M0,0h3139.7v1134.6H0V0z"></path>
  <path fill="#fff" d="M1582.1,758.3c0,8.3,0,10.3,5.8,16l32.7,32.1v1.3h-144.9v-61.5c-14.7,40.4-53.2,67.3-96.2,66.7
	c-74.4,0-128.2-58.3-128.2-166c0-100.6,58.3-167.9,139.7-167.9c36.5-2.6,69.9,18.6,84,51.9V395.5c1.3-6.4-1.3-12.8-6.4-16.7
	l-30.8-30.1v-0.6l144.2-17.3V758.3z M1475.6,739.1V537.2c-10.3-12.8-26.3-20.5-42.9-20.5c-35.3,0-69.2,32.1-69.2,126.9
	c0,89.1,29.5,120.5,66,120.5C1447.4,763.5,1464.7,753.8,1475.6,739.1L1475.6,739.1z M1677.6,807.7V534.6c0.6-6.4-1.3-12.2-5.8-16.7
	l-32.1-33.3v-1.3h144.9v276.9c0,8.3,0,10.3,5.8,16l32.1,30.1v1.3H1677.6z M1672.4,384c0-32.1,26.3-58.3,58.3-58.3
	s58.3,26.3,58.3,58.3s-26.3,58.3-58.3,58.3S1672.4,416.7,1672.4,384z M2175,757.7c0,8.3,0,10.9,5.8,16.7l32.7,32.1v1.3h-145.5v-69.9
	c-13.5,44.2-53.8,75-99.4,75c-64.7,0-98.7-47.4-98.7-136.5c0-42.9,0-90.4,1.3-142.9c1.3-5.8-1.3-12.2-5.8-16l-32.1-32.1V484h143.6
	v178.2c0,58.3,8.3,97.4,44.9,97.4c19.9-1.3,37.2-12.2,46.8-29.5V534.6c0.6-6.4-1.3-12.2-5.8-16.7l-32.1-33.3v-1.3h144.9v274.4H2175z
	 M2667.3,807.7c0-10.3,1.9-144.9,1.9-175.6c0-58.3-9-98.7-50-98.7c-20.5,0.6-39.7,10.9-51.3,28.2c3.8,17.9,5.8,37.2,5.8,55.8
	c0,40.4-1.3,92.3-1.9,143.6c-1.3,5.8,1.3,12.2,5.8,16l32.7,30.1v1.3h-146.2c0-9.6,1.9-144.9,1.9-175.6c0-59.6-9-98.7-49.4-98.7
	c-19.9,0.6-37.8,11.5-48.1,28.8v198.7c0,8.3,0,10.3,5.8,16l32.1,30.1v1.3h-144.9V535.9c0.6-6.4-1.3-12.2-5.8-16.7l-32.1-34V484
	h144.9v69.2c13.5-45.5,56.4-76.3,103.8-74.4c48.1,0,80.8,26.9,94.9,78.2c15.4-46.8,59.6-78.8,109-78.2
	c64.7,0,101.3,47.4,101.3,137.8c0,42.9-1.3,92.3-1.9,143.6c-1.3,6.4,1.3,12.2,6.4,16l32.1,30.1v1.3L2667.3,807.7z M850,765.4
	l42.9,41v1.3H675v-1.3l43.6-41c4.5-3.8,7.1-9.6,5.8-16V486.5c0-10.9,0-26.3,1.9-39.1L580.1,812.8h-1.9L426.3,476.9
	c-3.2-8.3-4.5-9-6.4-14.7v220.5c-1.9,14.7,0.6,29.5,7.1,42.9l60.9,80.8v1.3H325.6v-1.3l60.9-80.8c6.4-13.5,9-28.2,7.1-42.9V439.1
	c1.3-12.2-2.6-23.7-10.3-33.3l-42.9-56.4v-1.3h155.1l130.1,284.6l114.7-284.6h151.9v1.3l-42.9,47.4c-5.1,3.8-7.7,10.3-6.4,16.7
	v335.9C842.3,755.1,844.9,761.5,850,765.4L850,765.4z M1020.5,633.3v1.3c0,83.3,42.9,116.7,92.9,116.7c42.3,1.3,80.8-22.4,98.7-60.3
	h1.3c-17.3,82.7-67.9,121.8-144.2,121.8c-82.1,0-159.6-50-159.6-164.7c0-121.2,77.6-169.2,163.5-169.2
	c69.2,0,142.9,32.7,142.9,137.8v16.7H1020.5z M1020.5,616.7h95.5V600c0-85.9-17.9-108.3-44.2-108.3
	C1039.7,491,1019.9,525,1020.5,616.7z"></path>
</svg>
